<?xml version="1.0" encoding="iso-8859-1"?>
<!-- Generator: Adobe Illustrator 16.0.0, SVG Export Plug-In . SVG Version: 6.00 Build 0)  -->
<!DOCTYPE svg PUBLIC "-//W3C//DTD SVG 1.1//EN" "http://www.w3.org/Graphics/SVG/1.1/DTD/svg11.dtd">
<svg version="1.1" id="Capa_1" xmlns="http://www.w3.org/2000/svg" xmlns:xlink="http://www.w3.org/1999/xlink" x="0px" y="0px"
	 width="888.9px" height="888.9px" viewBox="0 0 888.9 888.9" style="enable-background:new 0 0 888.9 888.9;" xml:space="preserve"
	>
<g>
	<g>
		<path d="M657.55,257h-426.1c-14.1,0-25.4,11.8-24.7,26l12.3,216.801c16.2-9.701,33.2-17.801,51.7-23.801
			c34.2-11.199,70.8-13.5,106.1-6.5c29.801,5.9,57.5,20.801,82.801,37.1c22.6,14.6,45.3,32.801,71.5,40.4
			c29.6,8.6,57.8,3.199,85.899-7.6c18.4-8.4,35.8-19,52.3-30.701L682.15,283.1C682.95,268.9,671.65,257,657.55,257z"/>
		<path d="M519.15,648.699C489.05,642.9,460.95,628,435.35,611.6c-20.5-13.199-40.5-27.4-62.6-37.799
			c-7.7-2.9-15.6-5.102-23.7-6.701c-8.6-0.699-17.2-0.6-25.7,0.201c-11.5,2.1-22.8,5.299-33.699,9.398
			C276.35,582.9,263.75,590.4,251.95,599c-9.1,7.4-17.7,15.4-25.9,23.801l13.7,242.699c0.7,13.1,11.5,23.4,24.7,23.4h360.1
			c13.2,0,24-10.301,24.7-23.4l13.3-235.9c-10.7,4.801-21.7,9-32.899,12.5C593.85,653.199,556.05,655.699,519.15,648.699z"/>
		<path d="M490.65,50.6h154c13.8,0,25.3-11.5,25.3-25.3c0-13.8-11.5-25.3-25.3-25.3c0,0-179.2,0-179.4,0
			c-13.1,0-25.3,11.6-25.3,25.3v96.3h50.7V50.6z"/>
		<path d="M681.65,146.6h-191h-50.7h-232.6c-23.5,0-42.6,19.1-42.6,42.6s19.1,42.6,42.6,42.6h474.2c23.5,0,42.601-19.1,42.601-42.6
			S705.15,146.6,681.65,146.6z"/>
	</g>
</g>
<g>
</g>
<g>
</g>
<g>
</g>
<g>
</g>
<g>
</g>
<g>
</g>
<g>
</g>
<g>
</g>
<g>
</g>
<g>
</g>
<g>
</g>
<g>
</g>
<g>
</g>
<g>
</g>
<g>
</g>
</svg>
